<svg width="21" height="21" viewBox="0 0 21 21" fill="none" xmlns="http://www.w3.org/2000/svg">
<path d="M9.47374 1.21285C9.77359 0.292575 11.0755 0.292576 11.3753 1.21285L13.1264 6.58725C13.2606 6.99888 13.6443 7.27746 14.0772 7.27746H19.738C20.7074 7.27746 21.1097 8.51849 20.3247 9.08725L15.7498 12.4019C15.3984 12.6565 15.2513 13.1088 15.3858 13.5215L17.1343 18.8881C17.4344 19.8089 16.3811 20.5759 15.5968 20.0077L11.0113 16.6853C10.6612 16.4317 10.1879 16.4317 9.83783 16.6853L5.25228 20.0077C4.46802 20.5759 3.41473 19.8089 3.71475 18.8881L5.46333 13.5215C5.59778 13.1088 5.4507 12.6565 5.09924 12.4019L0.524367 9.08725C-0.260639 8.51849 0.141691 7.27746 1.11109 7.27746H6.77184C7.20477 7.27746 7.58853 6.99888 7.72265 6.58725L9.47374 1.21285Z" fill="#BEBEBE"/>
</svg>
